<?xml version="1.0" encoding="utf-8"?>
<!-- Generator: Adobe Illustrator 19.0.1, SVG Export Plug-In . SVG Version: 6.00 Build 0)  -->
<svg version="1.1" id="Layer_1" xmlns="http://www.w3.org/2000/svg" xmlns:xlink="http://www.w3.org/1999/xlink" x="0px" y="0px"
	 viewBox="0 0 500 500" style="enable-background:new 0 0 500 500;" xml:space="preserve">
<style type="text/css">
	.st0{fill:#D9272E;}
	.st1{fill:#FFFFFF;}
</style>
<path class="st0" d="M419.3,490H80.7C41.8,490,10,458.2,10,419.3V80.7C10,41.8,41.8,10,80.7,10h338.7c38.9,0,70.7,31.8,70.7,70.7
	v338.7C490,458.2,458.2,490,419.3,490z"/>
<g>
	<path class="st1" d="M401.4,361.5c-1.7,1.8-3.9,2.7-6.5,2.7h-38.9c-2.6,0-4.8-0.9-6.5-2.7c-1.7-1.8-2.6-4-2.6-6.6V235.5
		c0-0.3-0.2-0.6-0.6-0.9c-0.4-0.3-0.9-0.2-1.4,0.1L263,316.9c-4,3.4-8.3,5.1-13,5.1c-4.7,0-9-1.7-13-5.1L155,234.7
		c-0.3-0.3-0.7-0.3-1.2-0.1c-0.5,0.3-0.8,0.5-0.8,0.9v119.4c0,2.6-0.9,4.8-2.6,6.6c-1.7,1.8-3.9,2.7-6.5,2.7H105
		c-2.6,0-4.8-0.9-6.5-2.7c-1.7-1.8-2.6-4-2.6-6.6V145.1c0-2.6,0.9-4.8,2.6-6.6c1.7-1.8,3.9-2.7,6.5-2.7h26.5c4.9,0,9.3,1.8,13.1,5.5
		l102.2,102.4c0.8,0.8,1.9,1.2,3.1,1.2s2.3-0.4,3.1-1.2l102.2-102.4c3.6-3.6,8-5.5,13.1-5.5H395c2.6,0,4.8,0.9,6.5,2.7
		c1.7,1.8,2.6,4,2.6,6.6v209.7C404,357.4,403.1,359.7,401.4,361.5z"/>
</g>
</svg>
